<?xml version="1.0" encoding="UTF-8"?>
<svg xmlns="http://www.w3.org/2000/svg" xmlns:xlink="http://www.w3.org/1999/xlink" width="50pt" height="50pt" viewBox="0 0 50 50" version="1.1">
<g id="surface13614864">
<path style=" stroke:none;fill-rule:nonzero;fill:rgb(100%,100%,100%);fill-opacity:1;" d="M 24.96875 1.972656 C 23.867188 1.988281 22.984375 2.894531 23 4 L 23 16 L 20.863281 16 C 20.039062 9.121094 15.019531 3.523438 8.4375 2.046875 C 8.308594 2.015625 8.175781 2 8.039062 1.992188 C 7.003906 1.957031 6.109375 2.722656 5.984375 3.753906 C 5.859375 4.785156 6.546875 5.738281 7.5625 5.953125 C 12.929688 7.152344 17 12.050781 17 18 C 17 23.949219 12.929688 28.847656 7.5625 30.046875 C 6.851562 30.191406 6.269531 30.707031 6.046875 31.398438 C 5.828125 32.089844 5.996094 32.847656 6.492188 33.378906 C 6.988281 33.90625 7.734375 34.128906 8.4375 33.953125 C 15.019531 32.476562 20.039062 26.878906 20.863281 20 L 23 20 L 23 32.265625 C 19.5625 33.164062 17 36.296875 17 40 C 17 44.394531 20.605469 48 25 48 C 29.394531 48 33 44.394531 33 40 C 33 36.296875 30.4375 33.164062 27 32.265625 L 27 20 L 29.136719 20 C 29.960938 26.878906 34.980469 32.476562 41.5625 33.953125 C 42.265625 34.128906 43.011719 33.90625 43.507812 33.378906 C 44.003906 32.847656 44.171875 32.089844 43.953125 31.398438 C 43.730469 30.707031 43.148438 30.191406 42.4375 30.046875 C 37.070312 28.847656 33 23.949219 33 18 C 33 12.050781 37.070312 7.152344 42.4375 5.953125 C 43.429688 5.746094 44.109375 4.832031 44.023438 3.820312 C 43.933594 2.8125 43.109375 2.027344 42.097656 1.992188 C 41.917969 1.988281 41.738281 2.007812 41.5625 2.046875 C 34.980469 3.523438 29.960938 9.121094 29.136719 16 L 27 16 L 27 4 C 27.007812 3.460938 26.796875 2.941406 26.414062 2.558594 C 26.03125 2.175781 25.511719 1.964844 24.96875 1.972656 Z M 25 36 C 27.234375 36 29 37.765625 29 40 C 29 42.234375 27.234375 44 25 44 C 22.765625 44 21 42.234375 21 40 C 21 37.765625 22.765625 36 25 36 Z M 25 36 "/>
</g>
</svg>
