<?xml version="1.0" encoding="UTF-8"?>
<svg xmlns="http://www.w3.org/2000/svg" xmlns:xlink="http://www.w3.org/1999/xlink" width="50pt" height="50pt" viewBox="0 0 50 50" version="1.1">
<g id="surface13614860">
<path style=" stroke:none;fill-rule:nonzero;fill:rgb(100%,100%,100%);fill-opacity:1;" d="M 8.96875 1.972656 C 7.867188 1.988281 6.984375 2.894531 7 4 L 7 14 C 7 23.214844 14.039062 30.875 23 31.878906 L 23 37 L 18 37 C 17.277344 36.988281 16.609375 37.367188 16.246094 37.992188 C 15.878906 38.613281 15.878906 39.386719 16.246094 40.007812 C 16.609375 40.632812 17.277344 41.011719 18 41 L 23 41 L 23 46 C 22.988281 46.722656 23.367188 47.390625 23.992188 47.753906 C 24.613281 48.121094 25.386719 48.121094 26.007812 47.753906 C 26.632812 47.390625 27.011719 46.722656 27 46 L 27 41 L 32 41 C 32.722656 41.011719 33.390625 40.632812 33.753906 40.007812 C 34.121094 39.386719 34.121094 38.613281 33.753906 37.992188 C 33.390625 37.367188 32.722656 36.988281 32 37 L 27 37 L 27 31.878906 C 35.960938 30.875 43 23.214844 43 14 L 43 4 C 43.011719 3.277344 42.632812 2.609375 42.007812 2.246094 C 41.386719 1.878906 40.613281 1.878906 39.992188 2.246094 C 39.367188 2.609375 38.988281 3.277344 39 4 L 39 14 C 39 21.027344 33.765625 26.863281 27 27.839844 L 27 4 C 27.007812 3.460938 26.796875 2.941406 26.414062 2.558594 C 26.03125 2.175781 25.511719 1.964844 24.96875 1.972656 C 23.867188 1.988281 22.984375 2.894531 23 4 L 23 27.839844 C 16.234375 26.863281 11 21.027344 11 14 L 11 4 C 11.007812 3.460938 10.796875 2.941406 10.414062 2.558594 C 10.03125 2.175781 9.511719 1.964844 8.96875 1.972656 Z M 8.96875 1.972656 "/>
</g>
</svg>
