<?xml version="1.0" encoding="UTF-8"?>
<svg xmlns="http://www.w3.org/2000/svg" xmlns:xlink="http://www.w3.org/1999/xlink" width="50pt" height="50pt" viewBox="0 0 50 50" version="1.1">
<g id="surface13614856">
<path style=" stroke:none;fill-rule:nonzero;fill:rgb(100%,100%,100%);fill-opacity:1;" d="M 24.96875 0.972656 C 23.867188 0.988281 22.984375 1.894531 23 3 L 23 10 L 15 10 C 14.277344 9.988281 13.609375 10.367188 13.246094 10.992188 C 12.878906 11.613281 12.878906 12.386719 13.246094 13.007812 C 13.609375 13.632812 14.277344 14.011719 15 14 L 23 14 L 23 20.152344 C 15.679688 21.136719 10 27.417969 10 35 C 10 43.261719 16.738281 50 25 50 C 33.261719 50 40 43.261719 40 35 C 40 27.417969 34.320312 21.136719 27 20.152344 L 27 14 L 35 14 C 35.722656 14.011719 36.390625 13.632812 36.753906 13.007812 C 37.121094 12.386719 37.121094 11.613281 36.753906 10.992188 C 36.390625 10.367188 35.722656 9.988281 35 10 L 27 10 L 27 3 C 27.007812 2.460938 26.796875 1.941406 26.414062 1.558594 C 26.03125 1.175781 25.511719 0.964844 24.96875 0.972656 Z M 24.761719 24.011719 C 24.925781 24.03125 25.085938 24.03125 25.25 24.011719 C 31.230469 24.144531 36 28.984375 36 35 C 36 41.097656 31.097656 46 25 46 C 18.902344 46 14 41.097656 14 35 C 14 28.980469 18.773438 24.140625 24.761719 24.011719 Z M 24.761719 24.011719 "/>
</g>
</svg>
