<?xml version="1.0" encoding="UTF-8"?>
<svg xmlns="http://www.w3.org/2000/svg" xmlns:xlink="http://www.w3.org/1999/xlink" width="50pt" height="50pt" viewBox="0 0 50 50" version="1.1">
<g id="surface13614826">
<path style=" stroke:none;fill-rule:nonzero;fill:rgb(100%,100%,100%);fill-opacity:1;" d="M 15.625 3.125 L 15.625 9.375 L 9.375 9.375 L 9.375 12.5 L 15.625 12.5 L 15.625 40.726562 L 18.75 40.726562 L 18.75 29.667969 C 18.75 26.238281 21.566406 23.4375 25 23.4375 C 28.433594 23.4375 31.230469 26.234375 31.230469 29.667969 L 31.230469 39.808594 C 31.230469 43.6875 34.421875 46.875 38.300781 46.875 C 40.101562 46.875 41.761719 46.183594 43.011719 45.0625 L 40.925781 42.738281 C 40.222656 43.371094 39.308594 43.75 38.300781 43.75 C 36.125 43.75 34.355469 41.984375 34.355469 39.808594 L 34.355469 29.667969 C 34.355469 24.53125 30.140625 20.3125 25 20.3125 C 22.589844 20.3125 20.417969 21.296875 18.75 22.816406 L 18.75 12.5 L 25 12.5 L 25 9.375 L 18.75 9.375 L 18.75 3.125 Z M 15.625 3.125 "/>
</g>
</svg>
