<?xml version="1.0" encoding="UTF-8"?>
<svg xmlns="http://www.w3.org/2000/svg" xmlns:xlink="http://www.w3.org/1999/xlink" width="50pt" height="50pt" viewBox="0 0 50 50" version="1.1">
<g id="surface13614840">
<path style=" stroke:none;fill-rule:nonzero;fill:rgb(100%,100%,100%);fill-opacity:1;" d="M 25 0 C 16.738281 0 10 6.738281 10 15 C 10 22.582031 15.679688 28.863281 23 29.847656 L 23 36 L 15 36 C 14.277344 35.988281 13.609375 36.367188 13.246094 36.992188 C 12.878906 37.613281 12.878906 38.386719 13.246094 39.007812 C 13.609375 39.632812 14.277344 40.011719 15 40 L 23 40 L 23 47 C 22.988281 47.722656 23.367188 48.390625 23.992188 48.753906 C 24.613281 49.121094 25.386719 49.121094 26.007812 48.753906 C 26.632812 48.390625 27.011719 47.722656 27 47 L 27 40 L 35 40 C 35.722656 40.011719 36.390625 39.632812 36.753906 39.007812 C 37.121094 38.386719 37.121094 37.613281 36.753906 36.992188 C 36.390625 36.367188 35.722656 35.988281 35 36 L 27 36 L 27 29.847656 C 34.320312 28.863281 40 22.582031 40 15 C 40 6.738281 33.261719 0 25 0 Z M 25 4 C 31.097656 4 36 8.902344 36 15 C 36 21.019531 31.21875 25.867188 25.230469 25.988281 C 25.144531 25.976562 25.058594 25.972656 24.96875 25.972656 C 24.902344 25.972656 24.832031 25.980469 24.761719 25.988281 C 18.773438 25.859375 14 21.019531 14 15 C 14 8.902344 18.902344 4 25 4 Z M 25 4 "/>
</g>
</svg>
