<?xml version="1.0" encoding="UTF-8"?>
<svg xmlns="http://www.w3.org/2000/svg" xmlns:xlink="http://www.w3.org/1999/xlink" width="50pt" height="50pt" viewBox="0 0 50 50" version="1.1">
<g id="surface13614850">
<path style=" stroke:none;fill-rule:nonzero;fill:rgb(100%,100%,100%);fill-opacity:1;" d="M 34.207031 -0.0546875 C 33.382812 -0.0625 32.636719 0.433594 32.328125 1.199219 C 31.097656 4.019531 28.296875 6 25 6 C 21.703125 6 18.902344 4.019531 17.671875 1.199219 C 17.351562 0.4375 16.597656 -0.046875 15.769531 -0.0234375 C 15.101562 -0.0078125 14.484375 0.347656 14.128906 0.914062 C 13.777344 1.484375 13.730469 2.191406 14.003906 2.800781 C 14.875 4.789062 16.273438 6.488281 18.015625 7.742188 C 13.257812 10.261719 10 15.261719 10 21 C 10 28.582031 15.679688 34.863281 23 35.847656 L 23 39 L 19 39 C 18.277344 38.988281 17.609375 39.367188 17.246094 39.992188 C 16.878906 40.613281 16.878906 41.386719 17.246094 42.007812 C 17.609375 42.632812 18.277344 43.011719 19 43 L 23 43 L 23 47 C 22.988281 47.722656 23.367188 48.390625 23.992188 48.753906 C 24.613281 49.121094 25.386719 49.121094 26.007812 48.753906 C 26.632812 48.390625 27.011719 47.722656 27 47 L 27 43 L 31 43 C 31.722656 43.011719 32.390625 42.632812 32.753906 42.007812 C 33.121094 41.386719 33.121094 40.613281 32.753906 39.992188 C 32.390625 39.367188 31.722656 38.988281 31 39 L 27 39 L 27 35.847656 C 34.320312 34.863281 40 28.582031 40 21 C 40 15.261719 36.742188 10.261719 31.984375 7.742188 C 33.726562 6.488281 35.125 4.789062 35.996094 2.800781 C 36.285156 2.183594 36.242188 1.464844 35.878906 0.886719 C 35.519531 0.308594 34.886719 -0.046875 34.207031 -0.0546875 Z M 25 10 C 31.097656 10 36 14.902344 36 21 C 36 27.019531 31.21875 31.867188 25.230469 31.988281 C 25.144531 31.976562 25.058594 31.972656 24.96875 31.972656 C 24.902344 31.972656 24.832031 31.980469 24.761719 31.988281 C 18.773438 31.859375 14 27.019531 14 21 C 14 14.902344 18.902344 10 25 10 Z M 25 10 "/>
</g>
</svg>
