<?xml version="1.0" encoding="UTF-8"?>
<svg xmlns="http://www.w3.org/2000/svg" xmlns:xlink="http://www.w3.org/1999/xlink" width="50pt" height="50pt" viewBox="0 0 50 50" version="1.1">
<g id="surface13614844">
<path style=" stroke:none;fill-rule:nonzero;fill:rgb(100%,100%,100%);fill-opacity:1;" d="M 43.96875 3.972656 C 43.875 3.976562 43.78125 3.984375 43.6875 4 L 30 4 C 29.277344 3.988281 28.609375 4.367188 28.246094 4.992188 C 27.878906 5.613281 27.878906 6.386719 28.246094 7.007812 C 28.609375 7.632812 29.277344 8.011719 30 8 L 39.171875 8 L 28.066406 19.105469 C 22.195312 14.605469 13.71875 15.027344 8.351562 20.394531 C 2.507812 26.234375 2.511719 35.765625 8.351562 41.609375 C 14.191406 47.449219 23.722656 47.449219 29.5625 41.609375 C 34.917969 36.253906 35.347656 27.808594 30.890625 21.9375 L 42 10.828125 L 42 20 C 41.988281 20.722656 42.367188 21.390625 42.992188 21.753906 C 43.613281 22.121094 44.386719 22.121094 45.007812 21.753906 C 45.632812 21.390625 46.011719 20.722656 46 20 L 46 6.324219 C 46.0625 5.945312 46.015625 5.554688 45.859375 5.199219 C 45.859375 5.195312 45.859375 5.195312 45.859375 5.195312 C 45.855469 5.183594 45.847656 5.171875 45.84375 5.164062 C 45.613281 4.652344 45.183594 4.261719 44.65625 4.085938 C 44.433594 4.007812 44.203125 3.96875 43.96875 3.972656 Z M 18.957031 19.988281 C 21.769531 19.988281 24.578125 21.066406 26.734375 23.222656 C 31.050781 27.535156 31.046875 34.464844 26.734375 38.78125 C 22.425781 43.09375 15.492188 43.089844 11.179688 38.78125 C 6.867188 34.46875 6.867188 27.535156 11.179688 23.222656 C 13.335938 21.066406 16.144531 19.988281 18.957031 19.988281 Z M 18.957031 19.988281 "/>
</g>
</svg>
