<?xml version="1.0" encoding="UTF-8"?>
<svg xmlns="http://www.w3.org/2000/svg" xmlns:xlink="http://www.w3.org/1999/xlink" width="50pt" height="50pt" viewBox="0 0 50 50" version="1.1">
<g id="surface13614832">
<path style=" stroke:none;fill-rule:nonzero;fill:rgb(100%,100%,100%);fill-opacity:1;" d="M 33.96875 2.972656 C 32.867188 2.988281 31.984375 3.894531 32 5 L 32 32 L 15.683594 32 C 22.957031 26.648438 26 19.320312 26 13.5 C 26 7.726562 21.394531 3 15.59375 3 C 9.933594 3 5 7.171875 5 13 C 4.988281 13.722656 5.367188 14.390625 5.992188 14.753906 C 6.613281 15.121094 7.386719 15.121094 8.007812 14.753906 C 8.632812 14.390625 9.011719 13.722656 9 13 C 9 9.335938 11.761719 7 15.59375 7 C 19.285156 7 22 9.78125 22 13.5 C 22 19.089844 18.296875 27.472656 7.53125 32.050781 C 6.703125 32.242188 6.085938 32.933594 5.988281 33.777344 C 5.894531 34.617188 6.339844 35.429688 7.101562 35.800781 C 7.105469 35.800781 7.109375 35.804688 7.109375 35.804688 C 7.480469 35.992188 7.898438 36.058594 8.308594 36 L 32 36 L 32 47 C 31.988281 47.722656 32.367188 48.390625 32.992188 48.753906 C 33.613281 49.121094 34.386719 49.121094 35.007812 48.753906 C 35.632812 48.390625 36.011719 47.722656 36 47 L 36 36 L 45 36 C 45.722656 36.011719 46.390625 35.632812 46.753906 35.007812 C 47.121094 34.386719 47.121094 33.613281 46.753906 32.992188 C 46.390625 32.367188 45.722656 31.988281 45 32 L 36 32 L 36 5 C 36.007812 4.460938 35.796875 3.941406 35.414062 3.558594 C 35.03125 3.175781 34.511719 2.964844 33.96875 2.972656 Z M 33.96875 2.972656 "/>
</g>
</svg>
